# xmcd
#
# Track frame offsets: 
#        150
#        15819
#        32609
#        47481
#        62856
#        77215
#        80893
#        102083
#        124808
#        138429
#        153282
#        173515
#        181598
#
# Disc length: 2639 seconds
#
# Revision: 0
# Processed by: cddbd v1.5.1PL2 Copyright (c) Steve Scherf et al.
# Submitted via: ExactAudioCopy v0.95b2
#
DISCID=940a4d0d
DTITLE=Random - Random
DYEAR=2005
DGENRE=R&B
TTITLE0=Put Your Hands Up (Radio Mix)
TTITLE1=Are You Ready
TTITLE2=Can You Hear Me Now
TTITLE3=Them Girls
TTITLE4=Then I Could Die
TTITLE5=Interlude
TTITLE6=24 Roses
TTITLE7=I'll Try
TTITLE8=So Addicted
TTITLE9=Like This
TTITLE10=Better Man
TTITLE11=Zip-A-Dee-Doo-Dah
TTITLE12=Put Your Hands Up (New York Mix)
EXTD=
EXTT0=
EXTT1=
EXTT2=
EXTT3=
EXTT4=
EXTT5=
EXTT6=
EXTT7=
EXTT8=
EXTT9=
EXTT10=
EXTT11=
EXTT12=
PLAYORDER=
